<?xml version="1.0" standalone="no"?>
<!DOCTYPE svg PUBLIC "-//W3C//DTD SVG 20010904//EN"
 "http://www.w3.org/TR/2001/REC-SVG-20010904/DTD/svg10.dtd">
<svg version="1.0" xmlns="http://www.w3.org/2000/svg"
 width="333.000000pt" height="338.000000pt" viewBox="0 0 333.000000 338.000000"
 preserveAspectRatio="xMidYMid meet">

<g transform="translate(0.000000,338.000000) scale(0.100000,-0.100000)"
fill="#000000" stroke="none">
<path d="M582 3204 l-22 -15 0 -1470 c0 -994 3 -1477 10 -1490 10 -19 33 -19
1095 -19 1062 0 1085 0 1095 19 7 13 10 423 10 1258 l0 1238 -248 247 -247
248 -835 0 c-740 0 -838 -2 -858 -16z m1650 -291 l3 -228 228 -3 227 -2 0
-1200 0 -1200 -1025 0 -1025 0 0 1430 0 1430 795 0 795 0 2 -227z m243 7 l170
-170 -173 0 -172 0 0 170 c0 94 1 170 3 170 1 0 79 -76 172 -170z"/>
<path d="M2014 2642 c-5 -4 -104 -115 -218 -247 -115 -132 -215 -246 -222
-254 -11 -12 -33 1 -143 83 -113 85 -132 96 -150 86 -22 -11 -26 -27 -13 -46
17 -26 293 -223 306 -218 12 5 450 499 484 546 23 32 -12 72 -44 50z"/>
<path d="M971 1762 c-6 -11 -6 -24 0 -35 9 -16 57 -17 694 -17 645 0 685 1
694 18 6 11 6 24 0 35 -9 16 -57 17 -694 17 -645 0 -685 -1 -694 -18z"/>
<path d="M976 1234 c-19 -19 -20 -26 -4 -42 17 -17 1369 -17 1386 0 16 16 15
23 -4 42 -14 14 -90 16 -689 16 -599 0 -675 -2 -689 -16z"/>
<path d="M972 698 c-16 -16 -15 -23 4 -42 14 -14 90 -16 689 -16 599 0 675 2
689 16 19 19 20 26 4 42 -17 17 -1369 17 -1386 0z"/>
</g>
</svg>
