<?xml version="1.0" standalone="no"?>
<!DOCTYPE svg PUBLIC "-//W3C//DTD SVG 20010904//EN"
 "http://www.w3.org/TR/2001/REC-SVG-20010904/DTD/svg10.dtd">
<svg version="1.0" xmlns="http://www.w3.org/2000/svg"
 width="683.000000pt" height="760.000000pt" viewBox="0 0 683.000000 760.000000"
 preserveAspectRatio="xMidYMid meet">

<g transform="translate(0.000000,760.000000) scale(0.100000,-0.100000)"
fill="#000000" stroke="none">
<path d="M5014 6138 l-1261 -1263 -163 -374 c-170 -391 -173 -402 -120 -409
13 -2 172 62 389 158 l367 161 1263 1263 c1013 1013 1262 1267 1257 1282 -10
32 -430 444 -452 444 -12 0 -466 -447 -1280 -1262z m1459 984 l177 -177 -140
-140 -140 -140 -180 180 -180 180 137 137 c76 76 140 138 143 138 3 0 85 -80
183 -178z m-1208 -1562 l-1050 -1050 -180 180 -180 180 1050 1050 1050 1050
180 -180 180 -180 -1050 -1050z m-1152 -1108 c-140 -64 -549 -239 -552 -236
-3 3 212 501 241 558 9 16 30 -1 174 -145 l164 -164 -27 -13z"/>
<path d="M842 6668 c-19 -19 -17 -5671 2 -5687 10 -8 628 -10 2337 -9 l2324 3
0 1869 c0 1794 -1 1869 -18 1880 -15 9 -22 7 -38 -13 -19 -23 -19 -58 -19
-1842 l0 -1819 -2260 0 -2260 0 0 2775 0 2775 1699 0 c1841 0 1727 -3 1719 52
l-3 23 -1735 3 c-1342 1 -1739 -1 -1748 -10z"/>
</g>
</svg>
