<?xml version="1.0" standalone="no"?>
<!DOCTYPE svg PUBLIC "-//W3C//DTD SVG 20010904//EN"
 "http://www.w3.org/TR/2001/REC-SVG-20010904/DTD/svg10.dtd">
<svg version="1.0" xmlns="http://www.w3.org/2000/svg"
 width="333.000000pt" height="336.000000pt" viewBox="0 0 333.000000 336.000000"
 preserveAspectRatio="xMidYMid meet">

<g transform="translate(0.000000,336.000000) scale(0.100000,-0.100000)"
fill="#000000" stroke="none">
<path d="M1420 3065 c0 -202 -3 -295 -11 -295 -6 0 -19 5 -29 10 -68 36 -191
31 -277 -12 -56 -28 -128 -105 -155 -165 -43 -97 -32 -231 26 -316 l24 -36
-38 -6 c-22 -4 -58 -20 -82 -36 -68 -46 -690 -571 -711 -600 -61 -84 -3 -216
103 -234 63 -11 111 19 300 191 97 88 183 164 191 171 13 11 12 -9 -7 -127
l-22 -139 -129 -236 -128 -236 -190 -102 c-104 -56 -207 -117 -227 -135 -94
-85 -68 -232 51 -285 74 -33 103 -21 398 158 l262 160 76 141 c41 77 81 149
89 159 12 17 23 11 152 -95 l139 -112 0 -303 0 -303 30 -32 c42 -44 81 -62
135 -62 83 0 141 46 161 129 l11 43 264 0 264 0 0 -171 c0 -133 3 -170 13
-166 6 2 80 23 162 47 213 60 950 268 1013 286 l52 15 0 1494 0 1495 -955 0
-955 0 0 -295z m1720 237 c-8 -3 -247 -72 -530 -152 l-515 -146 -3 -1292 -2
-1292 -266 0 -266 0 6 72 c3 40 8 163 12 274 7 236 2 264 -63 327 l-43 42 0
113 0 114 188 -8 c235 -11 270 -9 302 14 98 73 92 210 -11 262 -32 17 -68 21
-214 27 l-176 6 -44 76 -45 76 0 199 0 199 36 40 c60 66 79 119 79 217 -1 98
-21 153 -79 217 l-36 40 0 285 c0 157 3 288 7 291 3 4 382 7 842 6 460 0 829
-3 821 -7z m140 -1451 c0 -787 -4 -1432 -8 -1435 -7 -4 -1026 -294 -1096 -312
l-26 -6 0 1431 0 1430 38 11 c80 24 1077 308 1085 309 4 0 7 -642 7 -1428z
m-1943 884 c60 -18 135 -81 165 -139 33 -63 36 -168 8 -234 -78 -180 -313
-228 -450 -90 -142 142 -86 394 102 459 65 23 109 24 175 4z m-279 -556 c27
-9 32 -17 43 -67 11 -54 10 -62 -21 -147 -17 -49 -50 -142 -73 -205 l-41 -115
36 -113 c30 -93 33 -112 19 -108 -9 3 -61 17 -116 31 -55 15 -103 30 -106 33
-4 4 6 86 22 182 16 96 28 185 26 197 -2 19 -41 -12 -246 -198 -135 -121 -252
-224 -262 -230 -83 -44 -177 62 -123 139 20 29 667 571 708 594 36 20 90 23
134 7z m362 -136 c0 -90 -3 -123 -10 -113 -6 8 -31 51 -55 96 -25 45 -55 86
-67 91 -23 11 -22 11 7 18 17 4 48 13 70 20 22 7 43 14 48 14 4 1 7 -56 7
-126z m-246 62 c-4 -8 -8 -15 -10 -15 -2 0 -4 7 -4 15 0 8 4 15 10 15 5 0 7
-7 4 -15z m99 -57 c13 -18 75 -124 137 -235 62 -112 117 -203 124 -203 172 -6
379 -21 396 -30 28 -15 50 -67 43 -103 -3 -15 -19 -39 -36 -53 -31 -26 -34
-26 -137 -20 -58 3 -162 9 -231 12 l-125 6 -110 154 c-60 84 -111 154 -114
154 -3 0 -19 -75 -37 -166 -17 -91 -33 -168 -35 -170 -4 -4 -80 15 -87 22 -3
2 21 42 52 87 l57 83 15 220 c17 274 33 316 88 242z m-147 -279 c-10 -151 -13
-169 -36 -202 l-25 -37 -14 32 c-25 59 -18 115 33 251 27 70 49 127 50 125 1
-2 -2 -78 -8 -169z m213 -297 l81 -113 0 -84 c0 -47 -3 -85 -6 -85 -3 0 -52
41 -108 91 l-102 92 21 108 c11 60 23 108 27 106 4 -1 43 -53 87 -115z m-357
-96 l197 -54 153 -138 c84 -75 162 -153 172 -172 19 -34 19 -48 10 -356 -11
-352 -15 -370 -74 -401 -37 -19 -64 -19 -105 1 -62 29 -66 52 -55 315 5 129
10 257 10 285 l0 52 -152 123 -153 124 42 9 c40 8 42 11 36 35 -8 35 -6 34
-49 23 -22 -6 -51 -13 -65 -16 -21 -5 -42 -36 -124 -188 l-98 -183 -76 -46
c-42 -25 -155 -94 -253 -153 -199 -122 -232 -132 -288 -94 -66 45 -71 129 -10
183 12 11 110 68 218 126 l196 105 129 237 c71 130 132 237 136 237 3 0 95
-25 203 -54z"/>
<path d="M2378 1565 c-15 -17 -32 -25 -54 -25 -44 0 -78 -42 -70 -84 9 -42 34
-66 69 -66 19 0 38 -9 54 -26 28 -30 49 -28 75 6 39 53 35 154 -7 196 -30 30
-40 30 -67 -1z m41 -107 c-1 -47 -2 -50 -10 -23 -7 26 -3 75 7 75 2 0 4 -24 3
-52z m-69 7 c0 -8 -9 -15 -20 -15 -11 0 -20 7 -20 15 0 8 9 15 20 15 11 0 20
-7 20 -15z"/>
</g>
</svg>
