<?xml version="1.0" standalone="no"?>
<!DOCTYPE svg PUBLIC "-//W3C//DTD SVG 20010904//EN"
 "http://www.w3.org/TR/2001/REC-SVG-20010904/DTD/svg10.dtd">
<svg version="1.0" xmlns="http://www.w3.org/2000/svg"
 width="213.000000pt" height="200.000000pt" viewBox="0 0 213.000000 200.000000"
 preserveAspectRatio="xMidYMid meet">

<g transform="translate(0.000000,200.000000) scale(0.100000,-0.100000)"
fill="#000000" stroke="none">
<path d="M1255 1684 c-6 -1 -27 -5 -48 -9 -46 -7 -110 -62 -138 -116 -16 -33
-19 -60 -19 -189 l0 -150 -240 0 c-139 0 -261 -5 -292 -11 -130 -28 -237 -114
-297 -239 -34 -70 -36 -81 -35 -170 0 -73 5 -108 22 -150 81 -204 307 -315
513 -251 108 34 197 108 248 209 l21 42 75 0 75 0 21 -42 c51 -101 140 -175
248 -209 206 -64 432 47 513 251 17 43 22 76 22 150 1 89 -2 100 -35 170 -60
125 -166 211 -297 239 -31 6 -153 11 -294 11 l-240 0 4 148 c4 161 12 188 68
236 112 93 274 25 294 -124 12 -92 81 -129 143 -76 26 22 28 30 31 108 1 45
-1 89 -6 97 -20 28 -32 -1 -32 -75 0 -87 -11 -114 -45 -114 -32 0 -55 25 -55
61 0 59 -40 126 -102 170 -25 18 -101 39 -123 33z m436 -541 c80 -39 150 -111
187 -191 23 -49 27 -70 27 -152 0 -85 -3 -102 -31 -160 -38 -80 -105 -149
-182 -187 -51 -25 -68 -28 -157 -28 -89 0 -107 3 -162 29 -73 33 -154 113
-184 181 l-20 45 -104 0 -104 0 -20 -45 c-30 -68 -111 -148 -184 -181 -55 -26
-73 -29 -162 -29 -89 0 -106 3 -157 28 -77 38 -144 107 -182 187 -28 58 -31
75 -31 160 0 82 4 103 27 152 48 103 144 186 247 215 35 9 179 12 586 10 l540
-2 66 -32z"/>
<path d="M1472 1057 c-42 -45 -21 -123 38 -142 51 -16 119 48 104 98 -20 66
-99 90 -142 44z m86 -23 c26 -18 28 -41 5 -66 -22 -24 -49 -23 -67 4 -20 29
-20 34 4 58 24 24 29 24 58 4z"/>
<path d="M516 1005 c-3 -9 -6 -41 -6 -71 l0 -54 -65 0 -66 0 3 -82 3 -83 62
-3 62 -3 3 -62 3 -62 83 -3 82 -3 0 65 0 65 68 3 67 3 0 80 0 80 -65 5 -65 5
-5 65 -5 65 -76 3 c-63 2 -78 0 -83 -13z m134 -90 l0 -65 65 0 65 0 0 -50 0
-50 -65 0 -65 0 0 -65 0 -65 -50 0 -49 0 -3 63 -3 62 -62 3 -63 3 0 49 0 50
65 0 65 0 0 65 0 65 50 0 50 0 0 -65z"/>
<path d="M1272 857 c-42 -45 -21 -123 38 -142 51 -16 119 48 104 98 -20 66
-99 90 -142 44z m88 -25 c18 -14 21 -25 16 -45 -9 -38 -53 -48 -78 -17 -23 28
-23 35 2 60 25 25 32 25 60 2z"/>
<path d="M1672 857 c-23 -25 -29 -75 -12 -106 16 -31 65 -46 101 -30 35 14 63
66 52 96 -22 63 -99 85 -141 40z m86 -23 c26 -18 28 -41 5 -66 -22 -24 -49
-23 -67 4 -20 29 -20 34 4 58 24 24 29 24 58 4z"/>
<path d="M1472 657 c-23 -25 -29 -75 -12 -106 5 -10 23 -24 40 -31 40 -16 85
1 106 42 42 81 -72 161 -134 95z m88 -25 c18 -14 21 -25 16 -45 -9 -38 -53
-48 -78 -17 -23 28 -23 35 2 60 25 25 32 25 60 2z"/>
</g>
</svg>
