<?xml version="1.0" standalone="no"?>
<!DOCTYPE svg PUBLIC "-//W3C//DTD SVG 20010904//EN"
 "http://www.w3.org/TR/2001/REC-SVG-20010904/DTD/svg10.dtd">
<svg version="1.0" xmlns="http://www.w3.org/2000/svg"
 width="747.000000pt" height="553.000000pt" viewBox="0 0 747.000000 553.000000"
 preserveAspectRatio="xMidYMid meet">

<g transform="translate(0.000000,553.000000) scale(0.100000,-0.100000)"
fill="#000000" stroke="none">
<path d="M3228 4908 l-3 -403 -1180 -5 -1180 -5 -57 -23 c-172 -70 -288 -223
-309 -408 -6 -56 -9 -689 -7 -1714 l3 -1625 21 -62 c41 -120 139 -235 245
-289 114 -57 -68 -54 2945 -54 1803 0 2790 3 2825 10 92 17 189 72 258 145 64
69 80 95 115 184 l21 56 3 1640 c2 1108 -1 1666 -8 1720 -11 89 -50 181 -102
246 -45 56 -136 123 -206 151 l-57 23 -1180 5 -1180 5 -3 403 -2 402 -480 0
-480 0 -2 -402z m802 -328 l0 -560 -320 0 -320 0 0 560 0 560 320 0 320 0 0
-560z m-800 -320 l0 -80 -110 0 c-133 0 -195 -20 -268 -85 -121 -109 -139
-296 -42 -428 37 -51 107 -101 162 -116 32 -9 234 -11 758 -9 l715 3 47 23
c55 27 122 91 148 142 65 128 35 289 -73 386 -72 64 -135 84 -267 84 l-110 0
0 80 0 80 1163 -2 1162 -3 55 -26 c71 -34 126 -89 159 -158 l26 -56 0 -1685 0
-1685 -21 -46 c-30 -64 -88 -125 -148 -157 l-51 -27 -2825 0 -2825 0 -51 27
c-60 32 -118 93 -148 157 l-21 46 0 1685 0 1685 26 55 c44 93 128 161 222 180
23 4 554 8 1180 9 l1137 1 0 -80z m-2 -322 l3 -78 479 0 479 0 3 78 3 77 100
0 c82 0 106 -4 134 -20 56 -33 76 -68 76 -135 0 -63 -16 -95 -69 -134 -27 -21
-39 -21 -704 -24 -457 -2 -689 0 -714 8 -101 29 -141 172 -70 251 39 43 92 59
192 56 l85 -2 3 -77z"/>
<path d="M3648 4444 c-77 -41 -75 -169 2 -209 60 -31 137 -10 165 45 57 110
-58 223 -167 164z"/>
<path d="M980 3140 l0 -80 2730 0 2730 0 0 80 0 80 -2730 0 -2730 0 0 -80z"/>
<path d="M1648 2631 c-72 -29 -112 -57 -167 -116 -71 -78 -95 -145 -96 -265 0
-86 3 -101 31 -161 77 -162 219 -247 395 -237 96 6 182 45 253 114 197 194
141 524 -109 649 -52 26 -72 30 -160 32 -79 3 -110 -1 -147 -16z m214 -157
c50 -17 109 -67 134 -115 40 -79 26 -190 -33 -259 -61 -71 -142 -99 -232 -79
-108 23 -183 115 -183 226 -1 171 153 282 314 227z"/>
<path d="M3230 2410 l0 -80 800 0 800 0 0 80 0 80 -800 0 -800 0 0 -80z"/>
<path d="M5000 2410 l0 -80 720 0 720 0 0 80 0 80 -720 0 -720 0 0 -80z"/>
<path d="M3230 1770 l0 -80 1605 0 1605 0 0 80 0 80 -1605 0 -1605 0 0 -80z"/>
<path d="M1640 1675 c-226 -49 -421 -240 -480 -471 -11 -43 -20 -97 -20 -121
l0 -43 643 2 642 3 -3 50 c-4 81 -22 145 -64 235 -34 70 -55 100 -127 170 -62
62 -105 94 -155 118 -140 68 -291 88 -436 57z m294 -177 c113 -37 219 -126
270 -227 14 -28 26 -53 26 -56 0 -3 -203 -5 -451 -5 l-450 0 32 61 c109 204
352 300 573 227z"/>
<path d="M3230 1130 l0 -80 1605 0 1605 0 0 80 0 80 -1605 0 -1605 0 0 -80z"/>
</g>
</svg>
