<?xml version="1.0" standalone="no"?>
<!DOCTYPE svg PUBLIC "-//W3C//DTD SVG 20010904//EN"
 "http://www.w3.org/TR/2001/REC-SVG-20010904/DTD/svg10.dtd">
<svg version="1.0" xmlns="http://www.w3.org/2000/svg"
 width="649.000000pt" height="713.000000pt" viewBox="0 0 649.000000 713.000000"
 preserveAspectRatio="xMidYMid meet">

<g transform="translate(0.000000,713.000000) scale(0.100000,-0.100000)"
fill="#000000" stroke="none">
<path d="M2445 6811 c-84 -30 -117 -51 -183 -117 -74 -75 -117 -158 -132 -259
-5 -41 -10 -314 -10 -650 0 -624 0 -618 52 -643 36 -17 95 6 103 40 3 13 6
300 8 638 2 488 6 623 16 652 26 70 82 131 155 168 l69 35 1531 0 1531 0 56
-26 c71 -33 125 -87 158 -158 l26 -56 0 -2840 0 -2840 -26 -55 c-36 -77 -80
-124 -147 -157 l-57 -28 -1535 0 c-1482 0 -1537 1 -1584 19 -93 36 -164 121
-185 224 -7 35 -11 255 -11 651 l0 598 -23 21 c-43 40 -107 25 -126 -29 -14
-41 -15 -1144 -1 -1244 24 -168 145 -317 308 -379 l57 -21 1524 -3 c1009 -1
1543 1 1580 8 166 31 312 159 361 318 20 63 20 104 20 2917 0 2830 0 2853 -20
2918 -41 131 -166 256 -297 297 -64 20 -90 20 -1617 20 -1469 -1 -1554 -2
-1601 -19z"/>
<path d="M3284 4810 c-30 -12 -54 -49 -54 -81 0 -22 93 -127 473 -534 259
-279 474 -511 475 -516 2 -5 -780 -9 -1865 -9 l-1870 0 -21 -23 c-28 -29 -28
-76 -2 -105 l21 -22 1870 0 c1224 0 1870 -3 1867 -10 -1 -5 -196 -217 -433
-471 -507 -543 -515 -552 -515 -588 0 -54 66 -95 113 -69 13 7 246 252 517
543 270 292 516 553 546 582 75 71 74 95 -5 171 -32 31 -280 297 -551 590
-411 445 -522 558 -543 551 -1 0 -12 -4 -23 -9z"/>
</g>
</svg>
