<?xml version="1.0" ?><!DOCTYPE svg  PUBLIC '-//W3C//DTD SVG 1.1//EN'  'http://www.w3.org/Graphics/SVG/1.1/DTD/svg11.dtd'><svg enable-background="new 0 0 128 128" height="128px" id="Layer_1" version="1.1" viewBox="0 0 128 128" width="128px" xml:space="preserve" xmlns="http://www.w3.org/2000/svg" xmlns:xlink="http://www.w3.org/1999/xlink"><path clip-rule="evenodd" d="  M114.97,57.061c0-7.596-6.158-13.754-13.754-13.754H26.785c-7.596,0-13.754,6.158-13.754,13.754v16.291  c0,0.076,0.01,0.149,0.011,0.226c-0.001,0.076-0.011,0.148-0.011,0.225v22.071c0,7.597,6.158,13.754,13.754,13.754h1.687  c7.596,0,13.754-6.157,13.754-13.754V82.522h43.55v13.681c0,7.597,6.158,13.754,13.754,13.754h1.687  c7.596,0,13.754-6.157,13.754-13.754V74.131c0-0.132-0.016-0.259-0.02-0.39c0.003-0.131,0.02-0.257,0.02-0.39V57.061z" fill="none" fill-rule="evenodd" stroke="#000000" stroke-miterlimit="10" stroke-width="3"/><path clip-rule="evenodd" d="  M37.081,61.784h-1.646v-1.645c0-2.525-2.047-4.572-4.573-4.572c-2.525,0-4.572,2.047-4.572,4.572v1.645h-1.646  c-2.526,0-4.573,2.048-4.573,4.574c0,2.523,2.047,4.571,4.573,4.571h1.646v1.647c0,2.525,2.047,4.572,4.572,4.572  c2.526,0,4.573-2.047,4.573-4.572v-1.647h1.646c2.526,0,4.573-2.048,4.573-4.571C41.654,63.832,39.607,61.784,37.081,61.784z" fill="none" fill-rule="evenodd" stroke="#000000" stroke-miterlimit="10" stroke-width="3"/><circle clip-rule="evenodd" cx="97.093" cy="57.114" fill="none" fill-rule="evenodd" r="3.566" stroke="#000000" stroke-miterlimit="10" stroke-width="3"/><circle clip-rule="evenodd" cx="97.093" cy="74.271" fill="none" fill-rule="evenodd" r="3.566" stroke="#000000" stroke-miterlimit="10" stroke-width="3"/><circle clip-rule="evenodd" cx="105.226" cy="65.571" fill="none" fill-rule="evenodd" r="3.566" stroke="#000000" stroke-miterlimit="10" stroke-width="3"/><circle clip-rule="evenodd" cx="88.961" cy="65.571" fill="none" fill-rule="evenodd" r="3.566" stroke="#000000" stroke-miterlimit="10" stroke-width="3"/><g><g><path d="M65.5,34.364c0-7.833,0-15.667,0-23.5c0-1.935-3-1.935-3,0c0,7.833,0,15.667,0,23.5C62.5,36.298,65.5,36.298,65.5,34.364    L65.5,34.364z"/></g></g><g><g><path d="M70.304,32.864c-3.948,0-7.896,0-11.844,0c-0.818,0-1.5,0.683-1.5,1.5c0,2.981,0,5.962,0,8.943c0,0.817,0.682,1.5,1.5,1.5    c3.948,0,7.896,0,11.844,0c0.818,0,1.5-0.683,1.5-1.5c0-2.981,0-5.962,0-8.943c0-1.935-3-1.935-3,0c0,2.981,0,5.962,0,8.943    c0.5-0.5,1-1,1.5-1.5c-3.948,0-7.896,0-11.844,0c0.5,0.5,1,1,1.5,1.5c0-2.981,0-5.962,0-8.943c-0.5,0.5-1,1-1.5,1.5    c3.948,0,7.896,0,11.844,0C72.238,35.864,72.238,32.864,70.304,32.864z"/></g></g><path clip-rule="evenodd" d="M58.875,72.267c0,0.863-0.7,1.563-1.563,1.563h-3.5  c-0.863,0-1.563-0.7-1.563-1.563l0,0c0-0.863,0.7-1.563,1.563-1.563h3.5C58.175,70.705,58.875,71.404,58.875,72.267L58.875,72.267z" fill-rule="evenodd"/><path clip-rule="evenodd" d="M73.438,72.267c0,0.863-0.7,1.563-1.563,1.563h-3.5  c-0.863,0-1.563-0.7-1.563-1.563l0,0c0-0.863,0.7-1.563,1.563-1.563h3.5C72.738,70.705,73.438,71.404,73.438,72.267L73.438,72.267z" fill-rule="evenodd"/></svg>