<?xml version="1.0" standalone="no"?>
<!DOCTYPE svg PUBLIC "-//W3C//DTD SVG 20010904//EN"
 "http://www.w3.org/TR/2001/REC-SVG-20010904/DTD/svg10.dtd">
<svg version="1.0" xmlns="http://www.w3.org/2000/svg"
 width="333.000000pt" height="254.000000pt" viewBox="0 0 333.000000 254.000000"
 preserveAspectRatio="xMidYMid meet">

<g transform="translate(0.000000,254.000000) scale(0.100000,-0.100000)"
fill="#000000" stroke="none">
<path d="M902 2208 c-66 -285 -68 -511 -6 -727 54 -183 140 -328 284 -471 245
-246 627 -420 1099 -501 63 -10 116 -21 118 -22 2 -2 -62 -50 -142 -107 -80
-57 -145 -109 -145 -115 0 -7 9 -20 20 -30 19 -17 25 -13 225 129 113 81 205
150 205 154 -1 4 -94 73 -208 154 l-207 147 -17 -22 c-10 -12 -18 -26 -18 -32
0 -5 57 -50 126 -99 69 -48 123 -90 121 -93 -7 -7 -172 24 -297 56 -516 131
-878 382 -1036 716 -113 240 -131 498 -58 823 14 63 24 116 21 118 -2 2 -17 6
-33 10 l-30 6 -22 -94z"/>
</g>
</svg>
