<?xml version="1.0" standalone="no"?>
<!DOCTYPE svg PUBLIC "-//W3C//DTD SVG 20010904//EN"
 "http://www.w3.org/TR/2001/REC-SVG-20010904/DTD/svg10.dtd">
<svg version="1.0" xmlns="http://www.w3.org/2000/svg"
 width="300.000000pt" height="263.000000pt" viewBox="0 0 300.000000 263.000000"
 preserveAspectRatio="xMidYMid meet">

<g transform="translate(0.000000,263.000000) scale(0.100000,-0.100000)"
fill="#000000" stroke="none">
<path d="M490 2082 c-285 -95 -387 -445 -196 -668 l35 -41 -60 -43 c-130 -95
-216 -246 -234 -412 -7 -69 5 -93 42 -86 14 3 20 20 30 81 6 43 17 94 24 115
32 100 122 213 212 266 l48 28 47 -20 c116 -50 244 -50 347 0 39 19 46 20 77
7 37 -15 166 -140 186 -179 12 -24 9 -31 -31 -91 -54 -82 -90 -191 -91 -278
l-1 -66 30 0 c26 0 30 4 33 30 16 187 108 349 244 429 l44 25 64 -27 c55 -23
79 -27 160 -27 81 0 105 4 160 27 l64 27 44 -25 c136 -80 228 -242 244 -429 3
-26 7 -30 33 -30 l30 0 -1 66 c-1 87 -37 196 -91 278 -41 60 -43 67 -31 91 19
38 138 152 180 175 37 19 37 19 82 -2 104 -51 231 -51 348 -1 l47 20 47 -27
c129 -76 210 -206 237 -378 9 -65 16 -82 30 -85 25 -5 47 16 47 45 0 13 -7 58
-16 101 -29 140 -109 267 -220 350 l-62 46 34 40 c237 277 17 708 -349 683
-328 -22 -499 -399 -302 -665 l45 -61 -43 -30 c-44 -30 -131 -118 -158 -160
l-16 -25 -39 29 c-21 16 -43 32 -48 36 -4 4 11 32 34 62 192 255 49 612 -269
668 -209 37 -427 -118 -471 -336 -24 -114 5 -232 80 -332 23 -30 38 -58 34
-62 -5 -4 -27 -20 -48 -36 l-39 -29 -16 25 c-27 42 -114 130 -158 160 l-43 30
45 61 c158 213 87 507 -151 624 -63 32 -84 37 -161 40 -67 3 -101 0 -143 -14z
m267 -86 c194 -88 262 -329 142 -510 -87 -131 -260 -183 -414 -125 -82 31
-163 112 -194 194 -32 83 -27 207 11 280 90 171 281 239 455 161z m1778 -1
c66 -32 129 -93 163 -160 38 -73 43 -197 11 -280 -31 -82 -112 -163 -194 -194
-245 -92 -493 93 -472 351 12 143 105 257 250 304 64 21 177 11 242 -21z
m-961 -120 c58 -9 125 -47 173 -96 168 -169 114 -455 -104 -557 -49 -22 -72
-27 -143 -27 -72 0 -94 5 -145 28 -216 101 -269 388 -102 556 68 69 185 116
262 105 11 -2 38 -6 59 -9z"/>
</g>
</svg>
