<?xml version="1.0" standalone="no"?>
<!DOCTYPE svg PUBLIC "-//W3C//DTD SVG 20010904//EN"
 "http://www.w3.org/TR/2001/REC-SVG-20010904/DTD/svg10.dtd">
<svg version="1.0" xmlns="http://www.w3.org/2000/svg"
 width="333.000000pt" height="340.000000pt" viewBox="0 0 333.000000 340.000000"
 preserveAspectRatio="xMidYMid meet">

<g transform="translate(0.000000,340.000000) scale(0.100000,-0.100000)"
fill="#000000" stroke="none">
<path d="M1555 3130 c-384 -38 -681 -272 -826 -647 -8 -23 -7 -23 65 -23 l74
0 46 85 c160 302 401 447 746 448 144 1 223 -12 333 -55 188 -72 364 -242 448
-433 l20 -45 74 0 c41 0 75 3 75 6 0 18 -93 199 -128 251 -201 295 -549 450
-927 413z"/>
<path d="M606 2315 c-47 -16 -91 -57 -117 -108 -19 -36 -20 -58 -17 -426 l3
-389 30 -43 c58 -82 65 -84 435 -87 266 -2 338 0 395 13 81 18 170 57 245 109
64 44 102 46 156 9 75 -51 135 -83 197 -105 58 -21 82 -22 402 -26 242 -2 351
0 379 8 56 17 102 55 125 104 20 40 21 60 21 420 0 353 -1 379 -19 415 -26 50
-81 97 -128 110 -25 7 -374 11 -1053 11 -836 -1 -1022 -3 -1054 -15z m2100
-149 c11 -16 14 -84 14 -376 0 -338 -1 -358 -19 -374 -17 -16 -49 -17 -357
-14 l-339 3 -60 28 c-33 15 -87 46 -120 67 -120 78 -205 76 -329 -7 -132 -89
-126 -87 -510 -91 -308 -3 -340 -2 -357 14 -18 16 -19 36 -19 374 0 367 1 379
40 393 8 3 471 5 1028 4 991 -2 1014 -2 1028 -21z"/>
<path d="M731 1078 c114 -289 331 -543 564 -661 28 -13 88 -37 135 -53 78 -25
98 -28 235 -28 137 0 157 3 235 28 164 54 284 131 413 265 121 126 220 280
286 449 l21 52 -73 0 -72 0 -42 -88 c-324 -688 -1038 -771 -1442 -167 -29 44
-72 119 -94 167 l-42 88 -72 0 -73 0 21 -52z"/>
</g>
</svg>
